<?xml version="1.0" encoding="utf-8"?>
<!-- Generator: Adobe Illustrator 24.0.2, SVG Export Plug-In . SVG Version: 6.00 Build 0)  -->
<svg version="1.1" id="Layer_1" xmlns="http://www.w3.org/2000/svg" xmlns:xlink="http://www.w3.org/1999/xlink" x="0px" y="0px"
	 viewBox="0 0 1760 340" style="enable-background:new 0 0 1760 340;" xml:space="preserve">
<style type="text/css">
	.st0{fill:#231F20;}
	.st1{fill:#236DB6;}
</style>
<g>
	<g>
		<path class="st0" d="M1319.46,87.33h34.56l-7.11,52.61h21.99l-4.16,29.97h-21.88l-15.2,111.68h-34.67l15.31-111.68h-13.78
			l4.05-29.97h13.89L1319.46,87.33z"/>
		<path class="st0" d="M550.07,142.89c-13.89-7.33-30.96-9.41-39.6-9.41c-12.14,0-22.75,3.72-31.72,11.16
			c-8.97,7.44-13.45,17.06-13.45,28.99c0,8.42,2.84,16.52,8.53,24.17c4.05,5.47,11.49,12.03,22.2,19.58
			c9.3,6.56,14.88,11.16,17.06,13.67c2.08,2.63,3.17,5.03,3.17,7.44c0,2.95-1.09,6.23-3.83,8.42c-2.73,2.19-6.45,3.06-11.05,3.06
			c-11.49,0-29.86-4.92-41.78-15.53l-20.13,24.06c8.64,7.98,20.89,14.77,29.97,18.27c8.86,3.39,19.47,5.03,30.19,5.14
			c16.41,0.22,28.88-4.7,37.41-14c8.53-9.3,12.91-19.25,12.91-29.75c0-7.98-2.08-15.31-6.34-22.2c-4.16-6.78-13.02-14.99-26.25-24.5
			c-8.31-6.02-13.34-9.95-14.99-12.14c-1.75-2.08-2.63-4.16-2.63-6.23c0-2.19,1.09-4.16,3.28-5.91c2.19-1.75,4.81-2.19,7.98-2.63
			c9.73-1.09,22.97,2.84,28,5.36c3.83,1.97,8.75,4.27,14.88,9.19l14.99-23.74C561.99,149.13,557.18,146.61,550.07,142.89z"/>
		<polygon class="st0" points="750.56,281.37 785.13,281.37 811.93,85.58 777.25,85.58 		"/>
		<path class="st0" d="M902.38,133.81c-13.02,0.77-25.49,3.5-37.41,10.61c-11.92,7-21.44,16.84-28.44,29.42
			c-7.11,12.58-10.61,25.92-10.61,39.81c0,18.27,5.58,34.24,16.63,48.02c11.05,13.78,25.92,20.67,44.63,20.67
			c8.2,0,15.53-1.42,21.99-4.16c6.56-2.73,13.56-7.66,21.11-14.66l-2.08,16.84h34.35c0,0,10.06-56.66,10.72-66.39
			c0.66-9.84,3.17-29.53-11.7-50.21C946.03,142.24,919.89,132.94,902.38,133.81z M931.81,225.91c-4.27,8.09-9.63,14.11-15.97,17.83
			c-6.34,3.83-13.78,5.69-22.31,5.69c-10.28,0-18.7-3.39-25.16-10.17c-6.45-6.78-9.84-15.64-9.84-26.69
			c0-14.33,4.27-26.14,12.91-35.22s19.14-13.67,31.5-13.67c10.61,0,19.14,3.39,25.7,10.17c6.45,6.78,9.73,15.86,9.73,27.02
			C938.26,209.4,936.07,217.71,931.81,225.91z"/>
		<path class="st0" d="M1222.11,136.44c-14.33,0-28.11,6.02-41.35,17.94l9.41-68.91h-34.46l-26.69,195.79h34.56l6.78-49.88
			c2.63-19.69,5.47-33.03,8.53-40.25c3.17-7.11,7.55-12.69,13.45-16.74c5.8-4.05,11.59-6.02,17.39-6.02
			c6.02,0,10.61,1.53,13.89,4.59c3.28,3.06,4.81,7.44,4.81,13.13c0,4.05-0.55,9.95-1.53,17.94l-10.61,77.22h34.56l10.83-79.08
			c1.42-11.05,2.19-19.25,2.19-24.83c0-11.81-3.94-21.55-11.7-29.31C1244.42,140.38,1234.36,136.44,1222.11,136.44z"/>
		<path class="st0" d="M1493.48,142.56c-10.28-5.8-21.66-8.64-34.24-8.64c-21.55,0-40.47,7.88-56.66,23.52
			c-16.19,15.64-24.28,35.33-24.28,59.07c0,19.69,6.02,35.55,17.94,47.69c11.92,12.14,27.89,18.27,48.02,18.27
			c23.08,0,42.44-7.77,58.19-23.19c15.64-15.42,23.52-34.13,23.52-56.22c0-13.24-2.84-25.16-8.53-35.88
			C1511.64,156.56,1503.66,148.36,1493.48,142.56z M1480.25,235.43c-7.66,9.84-18.7,14.77-33.36,14.77
			c-10.28,0-18.49-3.17-24.72-9.73c-6.13-6.45-9.3-14.99-9.3-25.49c0-11.81,3.83-22.86,11.38-33.03s18.49-15.31,32.6-15.31
			c10.28,0,18.7,3.28,25.16,9.73c6.45,6.45,9.73,14.88,9.73,25.27C1491.73,214.43,1487.91,225.58,1480.25,235.43z"/>
		<path class="st0" d="M1099.93,142.89c-13.89-7.33-30.96-9.41-39.6-9.41c-12.25,0-22.75,3.72-31.72,11.16
			c-8.97,7.44-13.45,17.06-13.45,28.99c0,8.42,2.84,16.52,8.53,24.17c4.05,5.47,11.49,12.03,22.2,19.58
			c9.3,6.56,14.99,11.16,17.06,13.67c2.08,2.63,3.17,5.03,3.17,7.44c0,2.95-1.09,6.23-3.83,8.42c-2.73,2.19-6.45,3.06-11.05,3.06
			c-11.49,0-29.86-4.92-41.78-15.53l-20.13,24.06c8.64,7.98,20.89,14.77,29.97,18.27c8.86,3.39,19.47,5.03,30.19,5.14
			c16.3,0.22,28.88-4.7,37.41-14c8.53-9.3,12.91-19.25,12.91-29.75c0-7.98-2.08-15.31-6.34-22.2c-4.16-6.78-12.91-14.99-26.25-24.5
			c-8.31-6.02-13.34-9.95-14.99-12.14c-1.75-2.08-2.63-4.16-2.63-6.23c0-2.19,1.09-4.16,3.28-5.91s4.81-2.19,7.98-2.63
			c9.73-1.09,22.97,2.84,28,5.36c3.83,1.97,8.75,4.27,14.88,9.19l14.99-23.74C1111.85,149.13,1107.04,146.61,1099.93,142.89z"/>
		<path class="st0" d="M673.56,134.25c-31.61-1.53-51.08,12.58-61.58,21.88c-5.91,5.25-17.17,20.13-20.45,40.36
			c-1.86,11.05-18.7,133.56-18.7,133.56l34.46-13.45l9.52-57.75c4.59,7.55,10.61,13.34,17.94,17.28c7.33,4.05,15.31,6.02,23.85,6.02
			c12.69,0,24.94-3.5,36.75-10.5c11.7-7,21.11-16.84,28.11-29.42c7-12.58,10.39-25.81,10.39-39.71c0-18.16-5.47-34.02-16.3-47.8
			C706.81,141.14,692.04,135.13,673.56,134.25z M686.79,236.85c-8.42,9.08-18.7,13.56-30.85,13.56c-10.39,0-18.81-3.39-25.16-10.17
			c-6.34-6.78-9.52-15.64-9.52-26.8c0-8.42,2.08-16.74,6.34-24.83c4.27-8.2,9.52-14.11,15.75-17.94c6.34-3.83,13.56-5.8,21.88-5.8
			c10.06,0,18.27,3.39,24.72,10.17c6.45,6.78,9.63,15.64,9.63,26.69C699.48,216.18,695.32,227.77,686.79,236.85z"/>
		<path class="st0" d="M1635.79,132.94c-31.72-1.53-51.08,12.58-61.58,21.88c-5.91,5.25-17.17,20.13-20.45,40.36
			c-1.86,11.05-18.7,133.66-18.7,133.66l34.46-13.45l9.52-57.64c4.7,7.55,10.61,13.34,17.94,17.28s15.31,6.02,23.85,6.02
			c12.69,0,24.94-3.5,36.75-10.61c11.7-7,21.11-16.84,28.11-29.42c7-12.58,10.39-25.81,10.39-39.71c0-18.16-5.47-34.02-16.3-47.8
			C1669.04,139.83,1654.38,133.81,1635.79,132.94z M1649.02,235.43c-8.42,9.08-18.7,13.56-30.85,13.56
			c-10.39,0-18.81-3.39-25.16-10.17c-6.34-6.78-9.52-15.75-9.52-26.8c0-8.42,2.08-16.74,6.34-24.83c4.27-8.2,9.52-14.11,15.75-17.94
			c6.34-3.83,13.56-5.8,21.88-5.8c10.06,0,18.27,3.39,24.72,10.17c6.45,6.78,9.63,15.64,9.63,26.69
			C1661.82,214.76,1657.56,226.46,1649.02,235.43z"/>
		<g>
			<path class="st0" d="M1742.33,112.48c0-0.33-0.11-0.77-0.11-1.09c0-0.33,0-0.66,0-0.98c0-0.44-0.11-0.88-0.11-1.31
				c0-0.44-0.22-0.77-0.44-1.09c-0.22-0.33-0.44-0.66-0.77-0.88c-0.33-0.22-0.66-0.44-1.09-0.55l0,0c0.98-0.44,1.64-0.88,1.97-1.64
				c0.44-0.77,0.66-1.53,0.66-2.63c0-0.66-0.11-1.2-0.33-1.75c-0.22-0.55-0.55-0.98-0.98-1.42c-0.44-0.44-0.98-0.77-1.53-0.98
				c-0.55-0.22-1.31-0.33-1.97-0.33h-8.97v16.63h3.72v-6.56h3.72c0.88,0,1.53,0.22,1.97,0.55c0.44,0.44,0.66,0.98,0.77,1.97
				c0.11,0.66,0.11,1.42,0.22,2.08c0,0.77,0.11,1.42,0.33,1.86h3.72c-0.11-0.22-0.33-0.55-0.44-0.88
				C1742.44,113.25,1742.44,112.92,1742.33,112.48z M1738.17,104.72c-0.44,0.33-1.09,0.55-1.86,0.55h-4.05v-4.7h4.05
				c0.88,0,1.42,0.22,1.86,0.55c0.44,0.33,0.66,0.98,0.66,1.75C1738.83,103.62,1738.61,104.39,1738.17,104.72z"/>
			<path class="st0" d="M1734.89,90.83c-8.75,0-15.75,7.11-15.75,15.75c0,8.75,7.11,15.75,15.75,15.75s15.86-7.11,15.86-15.75
				S1743.53,90.83,1734.89,90.83z M1734.89,119.37c-7.11,0-12.91-5.8-12.91-12.91s5.8-12.91,12.91-12.91s12.91,5.8,12.91,12.91
				S1742,119.37,1734.89,119.37z"/>
		</g>
	</g>
	<g>
		<path class="st1" d="M308.99,190.69c0,0-0.22-0.88-0.55-2.41c-3.72-16.95-7.33-55.02,17.17-71.43
			c24.28-16.19,48.24,2.73,51.85,12.8c5.25,14.55-6.67,21.22-27.56,26.8C316.97,165.21,309.53,186.43,308.99,190.69z"/>
		<path class="st1" d="M316.1,217.05c-49-23.85-43.64-63.33-49.77-83.13C231.55,11.96,162.09,3.21,154.1,2.99
			c-19.25-0.55-53.16,8.2-55.68,47.03c-3.61,55.24,74.05,51.63,102.71,74.05c19.58,15.31,33.25,49.33-2.84,41.89
			c-43.64-16.3-94.72-11.59-115.84-2.73c-35.77,14.99-48.35,34.46-51.96,38.5c-3.61,4.05-47.8,65.74,6.13,116.49
			c42.44,39.92,100.08,11.7,122.84-20.13c13.67-19.03,23.3-37.85,34.02-54.47c42.22-51.74,92.97-17.83,106.21,6.13
			c20.45,36.75,34.78,55.24,53.16,42.88C371.23,280.38,368.71,242.65,316.1,217.05z"/>
	</g>
</g>
</svg>
